<?xml version="1.0" encoding="UTF-8"?>
<svg width="48px" height="22px" viewBox="0 0 48 22" version="1.1" xmlns="http://www.w3.org/2000/svg" xmlns:xlink="http://www.w3.org/1999/xlink">
    <!-- Generator: Sketch 49.3 (51167) - http://www.bohemiancoding.com/sketch -->
    <title>Group</title>
    <desc>Created with Sketch.</desc>
    <defs></defs>
    <g id="Symbols" stroke="none" stroke-width="1" fill="none" fill-rule="evenodd">
        <g id="Footer" transform="translate(-696.000000, -201.000000)">
            <g id="Group" transform="translate(696.000000, 201.000000)">
                <path d="M35,13.0002367 L35,35 L20.0955688,35 C19.1648257,35 18.3571052,34.3579496 18.147129,33.4512012 L13.0635821,11.4987199 C13.0227015,11.3393667 13.0009631,11.1723403 13.0009631,11.0002367 C13.0009631,10.9630538 13.0020001,10.9259005 13.004069,10.8888198 C13.0112652,10.7557472 13.0315459,10.6261576 13.0635821,10.5012801 L18.147129,-11.4512012 C18.3571052,-12.3579496 19.1648257,-13 20.0955688,-13 L35,-13 L35,13.0002367 Z" id="Combined-Shape" fill="#3D4045" transform="translate(24.000000, 11.000000) rotate(-270.000000) translate(-24.000000, -11.000000) "></path>
                <path d="M31.8787322,10.5149287 C32.1466296,10.4479544 32.4180969,10.6108347 32.4850713,10.8787322 C32.5520456,11.1466296 32.3891653,11.4180969 32.1212678,11.4850713 L24,13.5153882 L15.8787322,11.4850713 C15.6108347,11.4180969 15.4479544,11.1466296 15.5149287,10.8787322 C15.5819031,10.6108347 15.8533704,10.4479544 16.1212678,10.5149287 L24,12.4846118 L31.8787322,10.5149287 Z" id="Triangle-3" fill="#E62E2E" fill-rule="nonzero" transform="translate(24.000000, 12.007635) rotate(180.000000) translate(-24.000000, -12.007635) "></path>
            </g>
        </g>
    </g>
</svg>