<svg width="16" height="16" viewBox="0 0 16 16" fill="none" xmlns="http://www.w3.org/2000/svg">
<path fill-rule="evenodd" clip-rule="evenodd" d="M11.3849 0H4.33928C1.94642 0 0 1.94654 0 4.3394V11.3849C0 13.7777 1.94642 15.7241 4.33928 15.7241H11.3849C13.7777 15.7241 15.7241 13.7773 15.7241 11.3849V4.3394C15.7241 1.94654 13.7777 0 11.3849 0ZM14.329 11.3849C14.329 13.0084 13.0084 14.329 11.3849 14.329H4.33928C2.71571 14.329 1.39512 13.0084 1.39512 11.3849V4.3394C1.39512 2.71583 2.71571 1.39512 4.33928 1.39512H11.3849C13.0084 1.39512 14.329 2.71583 14.329 4.3394V11.3849Z" fill="white"/>
<path fill-rule="evenodd" clip-rule="evenodd" d="M7.86206 3.93103C5.69431 3.93103 3.93103 5.69444 3.93103 7.86178C3.93103 10.0297 5.69431 11.7931 7.86206 11.7931C10.0294 11.7931 11.7931 10.0297 11.7931 7.86178C11.7931 5.69444 10.0294 3.93103 7.86206 3.93103ZM7.86206 10.439C6.44111 10.439 5.28454 9.28329 5.28454 7.86178C5.28454 6.44084 6.44066 5.28418 7.86206 5.28418C9.28347 5.28418 10.4396 6.44084 10.4396 7.86178C10.4396 9.28329 9.28302 10.439 7.86206 10.439Z" fill="white"/>
<path fill-rule="evenodd" clip-rule="evenodd" d="M12.1208 2.62067C11.8625 2.62067 11.609 2.72498 11.4267 2.90816C11.243 3.09055 11.1379 3.34442 11.1379 3.60365C11.1379 3.86188 11.2435 4.11541 11.4267 4.29858C11.6086 4.48097 11.8625 4.58618 12.1208 4.58618C12.3798 4.58618 12.6324 4.48097 12.8156 4.29858C12.9988 4.11541 13.1035 3.86143 13.1035 3.60365C13.1035 3.34442 12.9988 3.09055 12.8156 2.90816C12.6332 2.72498 12.3798 2.62067 12.1208 2.62067Z" fill="white"/>
</svg>
