<svg width="16" height="12" viewBox="0 0 16 12" fill="none" xmlns="http://www.w3.org/2000/svg">
<path fill-rule="evenodd" clip-rule="evenodd" d="M13.4892 11.3399C14.2968 11.2428 14.9679 10.5918 15.1567 9.70895C15.4251 8.45156 15.4267 7.07954 15.4267 5.78521V5.76245C15.4267 4.47462 15.4267 3.11112 15.1597 1.86109C14.9711 0.978211 14.3 0.327047 13.4922 0.230134C11.5795 0.000132158 9.64318 -0.00101029 7.71557 0.000132152C5.78779 -0.00101029 3.85168 0.000132158 1.93876 0.230134C1.13119 0.327047 0.460404 0.978211 0.271607 1.86109C0.00318497 3.11848 0 4.49069 0 5.78521C0 7.07954 0 8.45156 0.268599 9.70895C0.457219 10.5918 1.12801 11.2428 1.93575 11.3399C3.8485 11.5699 5.78478 11.5711 7.71239 11.5699C9.64018 11.5711 11.5763 11.5699 13.4892 11.3399ZM6.2209 8.67753L11.0418 5.78502L6.2209 2.89251V8.67753Z" fill="white"/>
</svg>
